<?xml version="1.0" encoding="UTF-8"?><svg xmlns="http://www.w3.org/2000/svg" viewBox="0 0 68.67 68.67"><defs><style>.d{fill:#fdfeff;stroke:#000;stroke-miterlimit:10;}</style></defs><g id="a"/><g id="b"><g id="c"><rect width="68.67" height="68.67"/><path class="d" d="M51.9,47.53c-.75,.77-2.15,1.16-4.2,1.16H21.03c-2.1,0-3.52-.35-4.27-1.05-.75-.7-1.12-2.01-1.12-3.92V21.17c0-.23,.09-.43,.28-.59,.19-.16,.4-.25,.63-.25h6.3c.23,0,.46,.08,.67,.25,.21,.16,.31,.36,.31,.59v7.21h21v-7.49c0-.23,.09-.44,.28-.63,.19-.19,.4-.28,.63-.28h6.37c.23,0,.44,.09,.63,.28,.19,.19,.28,.4,.28,.63v23.03c0,1.63-.37,2.83-1.12,3.6Zm-7.07-12.5H23.83v5.74c0,.79,.42,1.19,1.26,1.19h18.48c.84,0,1.26-.4,1.26-1.19v-5.74Z"/></g></g></svg>