<?xml version="1.0" encoding="UTF-8"?><svg xmlns="http://www.w3.org/2000/svg" viewBox="0 0 115.64 18.13"><g id="a"/><g id="b"><g id="c"><g><path d="M31.17,.78c.46-.47,1.33-.71,2.59-.71h16.46c1.3,0,2.17,.22,2.64,.65s.69,1.24,.69,2.42v13.91c0,.14-.06,.27-.17,.37s-.24,.15-.39,.15h-3.89c-.14,0-.28-.05-.41-.15s-.19-.22-.19-.37v-4.45h-12.96v4.62c0,.14-.06,.27-.17,.39-.11,.11-.24,.17-.39,.17h-3.93c-.14,0-.27-.06-.39-.17-.11-.12-.17-.25-.17-.39V3c0-1.01,.23-1.75,.69-2.22Zm4.36,7.71h12.96v-3.54c0-.49-.26-.73-.78-.73h-11.41c-.52,0-.78,.24-.78,.73v3.54Z"/><path d="M60.89,16.68V3.47c0-1.12,.2-1.92,.6-2.4,.4-.48,1.17-.71,2.29-.71h20.48c.14,0,.28,.04,.41,.13,.13,.09,.19,.22,.19,.39v3.2c0,.14-.06,.27-.19,.37-.13,.1-.27,.15-.41,.15h-17.54c-.29,0-.49,.04-.6,.13-.12,.09-.17,.27-.17,.56v11.4c0,.17-.07,.32-.19,.45-.13,.13-.28,.19-.45,.19h-3.8c-.14,0-.28-.07-.41-.22s-.19-.29-.19-.43Z"/><path d="M23.07,8.82V3.46s.06-1.66-.69-2.42c-.76-.76-2.64-.65-2.64-.65H3.29s-1.8-.12-2.59,.71C-.1,1.94,0,3.33,0,3.33v14.21c0,.52,.56,.56,.56,.56h3.93c.51,0,.56-.56,.56-.56v-4.62h12.96s-.18,0,2.58-.1c2.94-.1,2.48-4,2.48-4Zm-5.04-.33H5.07v-3.54s-.09-.73,.78-.73h11.41s.78-.07,.78,.73v3.54Z"/><g><rect x="106.99" y="-.28" width="5.24" height="12.63" rx=".68" ry=".68" transform="translate(36.37 -75.74) rotate(45)"/><rect x="90.91" y=".06" width="5.24" height="17.71" rx=".78" ry=".78"/><rect x="98" y=".03" width="5.24" height="18.12" rx=".78" ry=".78" transform="translate(109.71 -91.54) rotate(90)"/><rect x="106.99" y="6.12" width="5.24" height="12.22" rx=".67" ry=".67" transform="translate(195.76 -56.62) rotate(135)"/></g></g></g></g></svg>